<?xml version="1.0" standalone="no"?>
<!DOCTYPE svg PUBLIC "-//W3C//DTD SVG 20010904//EN"
 "http://www.w3.org/TR/2001/REC-SVG-20010904/DTD/svg10.dtd">
<svg version="1.0" xmlns="http://www.w3.org/2000/svg"
 width="640.000000pt" height="640.000000pt" viewBox="0 0 640.000000 640.000000"
 preserveAspectRatio="xMidYMid meet">

<g transform="translate(0.000000,640.000000) scale(0.100000,-0.100000)"
fill="#000000" stroke="none">
<path d="M3110 4957 c-30 -7 -61 -16 -68 -21 -8 -5 -35 -14 -60 -22 -26 -7
-67 -20 -92 -28 -25 -8 -85 -27 -135 -41 -131 -39 -175 -55 -175 -67 0 -5 -21
9 -47 32 -89 79 -206 117 -276 91 -22 -9 -25 -16 -29 -88 -10 -161 -91 -260
-368 -448 -197 -134 -255 -195 -453 -480 -15 -22 -56 -80 -92 -130 -98 -137
-175 -249 -232 -338 -59 -93 -76 -156 -67 -262 25 -312 29 -404 22 -440 -16
-73 2 -130 111 -345 120 -236 306 -572 418 -753 18 -29 40 -65 49 -82 9 -16
43 -70 76 -119 126 -191 158 -294 138 -445 -6 -47 -14 -89 -17 -94 -3 -5 -14
-39 -24 -76 -20 -74 -57 -200 -89 -306 -28 -91 -67 -226 -86 -295 -8 -30 -19
-64 -24 -75 -11 -24 -30 -95 -30 -112 0 -10 393 -13 1930 -13 1748 0 1930 1
1930 16 0 8 7 22 15 30 12 12 13 36 9 127 -18 382 -38 435 -229 606 -78 70
-186 151 -255 191 -30 18 -66 40 -80 50 -14 10 -56 34 -95 54 -38 20 -77 41
-85 46 -25 15 -126 59 -208 91 -42 16 -84 33 -92 38 -8 4 -40 15 -71 24 -48
14 -60 23 -85 63 -35 56 -144 140 -201 156 l-43 12 0 49 c0 53 27 109 61 127
10 6 19 17 19 24 0 19 72 44 165 57 44 6 99 20 123 32 63 31 134 107 178 190
37 69 39 71 44 42 8 -45 47 -108 84 -133 18 -12 35 -22 38 -22 4 0 6 48 6 108
0 129 13 170 131 408 44 87 83 173 87 189 4 17 10 35 14 40 27 35 44 281 30
414 l-5 45 66 11 c60 10 83 20 132 58 32 26 21 47 -23 47 -72 0 -149 54 -233
163 -24 31 -200 248 -232 286 -29 34 -107 112 -136 136 -37 31 -163 113 -185
121 -10 4 -26 12 -34 19 -8 6 -51 22 -95 36 -76 23 -93 24 -340 24 -216 0
-273 -3 -335 -18 -110 -27 -197 -63 -263 -110 -208 -149 -268 -228 -336 -447
-48 -155 -68 -205 -97 -252 -40 -64 -65 -85 -138 -118 -68 -31 -85 -56 -43
-64 12 -3 45 -10 72 -16 28 -7 70 -15 94 -18 l44 -7 -1 -155 c-3 -285 43 -452
195 -721 71 -125 103 -213 103 -283 0 -63 51 -58 65 5 6 27 53 69 77 69 9 0
30 -133 26 -167 -3 -25 -9 -30 -58 -43 -30 -9 -76 -26 -102 -40 l-47 -23 -54
33 c-30 18 -92 66 -137 106 -180 160 -258 215 -342 241 -27 8 -48 20 -48 28 0
18 -21 24 -43 13 -15 -8 -28 -1 -66 34 -26 24 -66 59 -89 77 -23 19 -57 58
-74 85 -37 59 -67 90 -107 111 -16 8 -34 29 -41 47 -8 18 -30 58 -50 89 -24
36 -39 72 -42 102 -11 92 -77 204 -192 326 -32 33 -46 55 -38 58 8 3 12 30 12
86 1 129 34 212 133 332 28 33 56 76 64 95 8 19 34 77 59 127 41 85 46 92 64
81 10 -7 21 -10 23 -8 2 3 34 50 72 105 37 55 73 107 81 115 8 8 43 51 80 95
88 108 262 283 369 373 92 78 92 78 70 150 -7 21 -5 22 56 22 70 0 184 26 238
55 43 22 95 27 143 14 33 -8 46 -23 109 -116 39 -59 77 -120 85 -136 19 -36
108 -123 146 -143 77 -40 127 7 97 91 -15 40 -15 45 0 60 12 11 16 34 15 80
-1 53 -7 77 -34 127 -53 101 -96 147 -125 130 -13 -7 -9 -16 23 -53 68 -77
111 -183 87 -215 -8 -11 -19 -15 -30 -10 -19 7 -45 -9 -45 -30 0 -7 16 -29 35
-50 59 -63 57 -115 -4 -93 -35 13 -114 100 -151 165 -16 29 -36 56 -43 61 -8
4 -23 29 -34 54 -27 62 -75 109 -118 116 -19 3 -35 9 -35 13 0 8 67 69 102 92
24 16 27 15 76 -9 42 -20 60 -24 95 -19 24 4 54 16 65 27 l22 19 -48 48 c-68
69 -150 135 -206 167 -41 24 -63 29 -130 32 -45 1 -106 -3 -136 -10z m191 -37
c61 -17 276 -181 263 -201 -8 -14 -63 -10 -95 7 -29 14 -30 17 -15 33 20 22
21 41 2 41 -15 0 -108 -61 -141 -93 -11 -10 -36 -31 -55 -45 -19 -15 -37 -30
-40 -33 -3 -4 -30 -19 -60 -34 -84 -43 -179 -65 -275 -65 l-85 0 -42 47 c-24
25 -69 73 -100 107 -37 40 -53 64 -47 71 5 5 44 19 87 31 75 21 116 33 292 89
173 54 241 64 311 45z m171 -3161 c20 -22 38 -52 40 -67 4 -37 34 -40 81 -7
21 14 40 25 42 25 3 0 14 -18 25 -40 22 -44 42 -50 79 -23 19 13 28 14 42 5
28 -18 53 -15 83 9 25 20 31 20 72 9 36 -10 43 -16 38 -29 -4 -9 -10 -40 -12
-68 -3 -48 -6 -52 -25 -48 -12 2 -60 10 -107 16 -90 11 -189 38 -255 69 -22
10 -52 22 -68 25 -15 4 -30 11 -33 16 -3 5 -20 9 -38 9 l-33 0 -7 65 c-4 36
-9 72 -12 80 -11 28 48 -3 88 -46z"/>
<path d="M3374 4658 c4 -20 25 -52 54 -81 26 -27 65 -67 88 -90 22 -23 49 -57
59 -74 23 -39 61 -47 49 -10 -9 31 -39 71 -74 101 -17 13 -30 29 -30 33 0 5
-25 33 -55 62 -29 29 -57 61 -60 72 -4 10 -13 19 -22 19 -12 0 -14 -7 -9 -32z"/>
</g>
</svg>
